<mxfile host="app.diagrams.net" modified="2024-03-26T13:55:57.760Z" agent="Mozilla/5.0 (Windows NT 10.0; Win64; x64) AppleWebKit/537.36 (KHTML, like Gecko) Chrome/123.0.0.0 Safari/537.36" etag="BkAKwocDp6dwpI_7DPmA" version="24.1.0" type="github">
  <diagram name="Page-1" id="2YBvvXClWsGukQMizWep">
    <mxGraphModel dx="2284" dy="1846" grid="1" gridSize="10" guides="1" tooltips="1" connect="1" arrows="1" fold="1" page="1" pageScale="1" pageWidth="850" pageHeight="1100" math="0" shadow="0">
      <root>
        <mxCell id="0" />
        <mxCell id="1" parent="0" />
        <mxCell id="aeY2nJqXoNuJw8O9usds-8" value="&lt;b&gt;sd &lt;/b&gt;ai-agents" style="shape=umlFrame;whiteSpace=wrap;html=1;pointerEvents=0;strokeColor=default;align=center;verticalAlign=middle;fontFamily=Helvetica;fontSize=12;fontColor=default;fillColor=default;width=110;height=30;" parent="1" vertex="1">
          <mxGeometry x="-840" y="-1080" width="1560" height="2160" as="geometry" />
        </mxCell>
        <mxCell id="aeY2nJqXoNuJw8O9usds-13" value=":Interviewer" style="shape=umlLifeline;perimeter=lifelinePerimeter;whiteSpace=wrap;html=1;container=1;dropTarget=0;collapsible=0;recursiveResize=0;outlineConnect=0;portConstraint=eastwest;newEdgeStyle={&quot;curved&quot;:0,&quot;rounded&quot;:0};strokeColor=default;align=center;verticalAlign=middle;fontFamily=Helvetica;fontSize=12;fontColor=default;fillColor=default;" parent="1" vertex="1">
          <mxGeometry x="-510" y="-985" width="100" height="2045" as="geometry" />
        </mxCell>
        <mxCell id="aeY2nJqXoNuJw8O9usds-17" value="" style="html=1;points=[[0,0,0,0,5],[0,1,0,0,-5],[1,0,0,0,5],[1,1,0,0,-5]];perimeter=orthogonalPerimeter;outlineConnect=0;targetShapes=umlLifeline;portConstraint=eastwest;newEdgeStyle={&quot;curved&quot;:0,&quot;rounded&quot;:0};strokeColor=default;align=center;verticalAlign=middle;fontFamily=Helvetica;fontSize=12;fontColor=default;fillColor=default;" parent="aeY2nJqXoNuJw8O9usds-13" vertex="1">
          <mxGeometry x="45" y="90" width="10" height="200" as="geometry" />
        </mxCell>
        <mxCell id="aeY2nJqXoNuJw8O9usds-36" value="" style="html=1;points=[[0,0,0,0,5],[0,1,0,0,-5],[1,0,0,0,5],[1,1,0,0,-5]];perimeter=orthogonalPerimeter;outlineConnect=0;targetShapes=umlLifeline;portConstraint=eastwest;newEdgeStyle={&quot;curved&quot;:0,&quot;rounded&quot;:0};strokeColor=default;align=center;verticalAlign=middle;fontFamily=Helvetica;fontSize=12;fontColor=default;fillColor=default;" parent="aeY2nJqXoNuJw8O9usds-13" vertex="1">
          <mxGeometry x="43.1633333333333" y="342.05882352941177" width="11.833333333333334" height="74.11764705882354" as="geometry" />
        </mxCell>
        <mxCell id="aeY2nJqXoNuJw8O9usds-45" value="" style="html=1;points=[[0,0,0,0,5],[0,1,0,0,-5],[1,0,0,0,5],[1,1,0,0,-5]];perimeter=orthogonalPerimeter;outlineConnect=0;targetShapes=umlLifeline;portConstraint=eastwest;newEdgeStyle={&quot;curved&quot;:0,&quot;rounded&quot;:0};strokeColor=default;align=center;verticalAlign=middle;fontFamily=Helvetica;fontSize=12;fontColor=default;fillColor=default;" parent="aeY2nJqXoNuJw8O9usds-13" vertex="1">
          <mxGeometry x="45.00333333333333" y="435.0041176470588" width="11.833333333333334" height="70.58823529411765" as="geometry" />
        </mxCell>
        <mxCell id="Cm1tVQZYmMBmun_1De68-10" value="" style="html=1;points=[[0,0,0,0,5],[0,1,0,0,-5],[1,0,0,0,5],[1,1,0,0,-5]];perimeter=orthogonalPerimeter;outlineConnect=0;targetShapes=umlLifeline;portConstraint=eastwest;newEdgeStyle={&quot;curved&quot;:0,&quot;rounded&quot;:0};" vertex="1" parent="aeY2nJqXoNuJw8O9usds-13">
          <mxGeometry x="44.08" y="565" width="10" height="155" as="geometry" />
        </mxCell>
        <mxCell id="aeY2nJqXoNuJw8O9usds-14" value=":GraphQL - API" style="shape=umlLifeline;perimeter=lifelinePerimeter;whiteSpace=wrap;html=1;container=1;dropTarget=0;collapsible=0;recursiveResize=0;outlineConnect=0;portConstraint=eastwest;newEdgeStyle={&quot;curved&quot;:0,&quot;rounded&quot;:0};strokeColor=default;align=center;verticalAlign=middle;fontFamily=Helvetica;fontSize=12;fontColor=default;fillColor=default;" parent="1" vertex="1">
          <mxGeometry x="-220" y="-985" width="100" height="2045" as="geometry" />
        </mxCell>
        <mxCell id="aeY2nJqXoNuJw8O9usds-20" value="" style="html=1;points=[[0,0,0,0,5],[0,1,0,0,-5],[1,0,0,0,5],[1,1,0,0,-5]];perimeter=orthogonalPerimeter;outlineConnect=0;targetShapes=umlLifeline;portConstraint=eastwest;newEdgeStyle={&quot;curved&quot;:0,&quot;rounded&quot;:0};strokeColor=default;align=center;verticalAlign=middle;fontFamily=Helvetica;fontSize=12;fontColor=default;fillColor=default;" parent="aeY2nJqXoNuJw8O9usds-14" vertex="1">
          <mxGeometry x="40" y="90" width="10" height="40" as="geometry" />
        </mxCell>
        <mxCell id="Cm1tVQZYmMBmun_1De68-38" value="" style="html=1;points=[[0,0,0,0,5],[0,1,0,0,-5],[1,0,0,0,5],[1,1,0,0,-5]];perimeter=orthogonalPerimeter;outlineConnect=0;targetShapes=umlLifeline;portConstraint=eastwest;newEdgeStyle={&quot;curved&quot;:0,&quot;rounded&quot;:0};" vertex="1" parent="aeY2nJqXoNuJw8O9usds-14">
          <mxGeometry x="45" y="1045" width="10" height="45" as="geometry" />
        </mxCell>
        <mxCell id="aeY2nJqXoNuJw8O9usds-19" value="Request changes to your website" style="html=1;verticalAlign=bottom;endArrow=block;curved=0;rounded=0;fontFamily=Helvetica;fontSize=12;fontColor=default;entryX=0;entryY=0;entryDx=0;entryDy=5;entryPerimeter=0;" parent="1" source="aeY2nJqXoNuJw8O9usds-28" edge="1" target="aeY2nJqXoNuJw8O9usds-17">
          <mxGeometry width="80" relative="1" as="geometry">
            <mxPoint x="-770.3" y="-890" as="sourcePoint" />
            <mxPoint x="-545" y="-890" as="targetPoint" />
          </mxGeometry>
        </mxCell>
        <mxCell id="aeY2nJqXoNuJw8O9usds-21" value="Consult the requested website" style="html=1;verticalAlign=bottom;endArrow=open;curved=0;rounded=0;entryX=0;entryY=0;entryDx=0;entryDy=5;fontFamily=Helvetica;fontSize=12;fontColor=default;exitX=1;exitY=0;exitDx=0;exitDy=5;exitPerimeter=0;endFill=0;" parent="1" source="aeY2nJqXoNuJw8O9usds-17" target="aeY2nJqXoNuJw8O9usds-20" edge="1">
          <mxGeometry relative="1" as="geometry">
            <mxPoint x="-530" y="-880" as="sourcePoint" />
          </mxGeometry>
        </mxCell>
        <mxCell id="aeY2nJqXoNuJw8O9usds-22" value="returns available website(s)" style="html=1;verticalAlign=bottom;endArrow=open;dashed=1;endSize=8;curved=0;rounded=0;exitX=0;exitY=1;exitDx=0;exitDy=-5;fontFamily=Helvetica;fontSize=12;fontColor=default;" parent="1" source="aeY2nJqXoNuJw8O9usds-20" target="aeY2nJqXoNuJw8O9usds-17" edge="1">
          <mxGeometry relative="1" as="geometry">
            <mxPoint x="-340" y="-815" as="targetPoint" />
          </mxGeometry>
        </mxCell>
        <mxCell id="aeY2nJqXoNuJw8O9usds-24" value="reject the edit website request" style="html=1;verticalAlign=bottom;endArrow=block;curved=0;rounded=0;fontFamily=Helvetica;fontSize=12;fontColor=default;" parent="1" source="aeY2nJqXoNuJw8O9usds-17" target="aeY2nJqXoNuJw8O9usds-28" edge="1">
          <mxGeometry width="80" relative="1" as="geometry">
            <mxPoint x="-545" y="-790" as="sourcePoint" />
            <mxPoint x="-770.3" y="-790" as="targetPoint" />
          </mxGeometry>
        </mxCell>
        <mxCell id="aeY2nJqXoNuJw8O9usds-25" value="&lt;b&gt;opt&amp;nbsp;&lt;/b&gt;website_data.length == 1" style="shape=umlFrame;whiteSpace=wrap;html=1;pointerEvents=0;strokeColor=default;align=center;verticalAlign=middle;fontFamily=Helvetica;fontSize=12;fontColor=default;fillColor=default;width=200;height=20;" parent="1" vertex="1">
          <mxGeometry x="-800" y="-740" width="370" height="280" as="geometry" />
        </mxCell>
        <mxCell id="aeY2nJqXoNuJw8O9usds-26" value="confirm website?" style="html=1;verticalAlign=bottom;endArrow=block;curved=0;rounded=0;fontFamily=Helvetica;fontSize=12;fontColor=default;entryX=1;entryY=0;entryDx=0;entryDy=5;entryPerimeter=0;" parent="1" source="aeY2nJqXoNuJw8O9usds-17" target="aeY2nJqXoNuJw8O9usds-27" edge="1">
          <mxGeometry width="80" relative="1" as="geometry">
            <mxPoint x="-544.7" y="-700.4" as="sourcePoint" />
            <mxPoint x="-770" y="-700.4" as="targetPoint" />
          </mxGeometry>
        </mxCell>
        <mxCell id="aeY2nJqXoNuJw8O9usds-41" value="ask about desired changes" style="html=1;verticalAlign=bottom;endArrow=block;curved=0;rounded=0;fontFamily=Helvetica;fontSize=12;fontColor=default;exitX=0;exitY=1;exitDx=0;exitDy=-5;exitPerimeter=0;" parent="1" source="aeY2nJqXoNuJw8O9usds-36" target="aeY2nJqXoNuJw8O9usds-27" edge="1">
          <mxGeometry width="80" relative="1" as="geometry">
            <mxPoint x="-700" y="-680" as="sourcePoint" />
            <mxPoint x="-620" y="-680" as="targetPoint" />
          </mxGeometry>
        </mxCell>
        <mxCell id="aeY2nJqXoNuJw8O9usds-49" value="&lt;b&gt;opt&amp;nbsp;&lt;/b&gt;website_data.length &amp;gt; 1" style="shape=umlFrame;whiteSpace=wrap;html=1;pointerEvents=0;strokeColor=default;align=center;verticalAlign=middle;fontFamily=Helvetica;fontSize=12;fontColor=default;fillColor=default;width=200;height=20;" parent="1" vertex="1">
          <mxGeometry x="-800" y="-450" width="370" height="220" as="geometry" />
        </mxCell>
        <mxCell id="Cm1tVQZYmMBmun_1De68-1" value="" style="group;fillColor=none;strokeColor=#b85450;" vertex="1" connectable="0" parent="1">
          <mxGeometry x="-100" y="-940" width="300" height="210" as="geometry" />
        </mxCell>
        <mxCell id="Cm1tVQZYmMBmun_1De68-2" value="&lt;b&gt;alt &lt;/b&gt;user.confirm" style="shape=umlFrame;whiteSpace=wrap;html=1;pointerEvents=0;strokeColor=default;align=center;verticalAlign=middle;fontFamily=Helvetica;fontSize=12;fontColor=default;fillColor=default;width=130;height=20;" vertex="1" parent="Cm1tVQZYmMBmun_1De68-1">
          <mxGeometry width="300" height="210" as="geometry" />
        </mxCell>
        <mxCell id="Cm1tVQZYmMBmun_1De68-3" value="" style="endArrow=none;dashed=1;html=1;rounded=0;fontFamily=Helvetica;fontSize=12;fontColor=default;exitX=0.001;exitY=0.545;exitDx=0;exitDy=0;exitPerimeter=0;entryX=1;entryY=0.55;entryDx=0;entryDy=0;entryPerimeter=0;" edge="1" parent="Cm1tVQZYmMBmun_1De68-1">
          <mxGeometry width="50" height="50" relative="1" as="geometry">
            <mxPoint x="0.2999999999999545" y="121" as="sourcePoint" />
            <mxPoint x="300" y="122.05000000000001" as="targetPoint" />
          </mxGeometry>
        </mxCell>
        <mxCell id="Cm1tVQZYmMBmun_1De68-4" value="" style="html=1;points=[[0,0,0,0,5],[0,1,0,0,-5],[1,0,0,0,5],[1,1,0,0,-5]];perimeter=orthogonalPerimeter;outlineConnect=0;targetShapes=umlLifeline;portConstraint=eastwest;newEdgeStyle={&quot;curved&quot;:0,&quot;rounded&quot;:0};strokeColor=default;align=center;verticalAlign=middle;fontFamily=Helvetica;fontSize=12;fontColor=default;fillColor=default;" vertex="1" parent="Cm1tVQZYmMBmun_1De68-1">
          <mxGeometry x="250" y="37.05882352941177" width="10" height="74.11764705882354" as="geometry" />
        </mxCell>
        <mxCell id="Cm1tVQZYmMBmun_1De68-5" value="Yes" style="html=1;verticalAlign=bottom;endArrow=block;curved=0;rounded=0;fontFamily=Helvetica;fontSize=12;fontColor=default;entryX=0;entryY=0;entryDx=0;entryDy=5;entryPerimeter=0;" edge="1" parent="Cm1tVQZYmMBmun_1De68-1">
          <mxGeometry width="80" relative="1" as="geometry">
            <mxPoint x="30" y="49.411764705882355" as="sourcePoint" />
            <mxPoint x="250" y="49.411764705882355" as="targetPoint" />
          </mxGeometry>
        </mxCell>
        <mxCell id="Cm1tVQZYmMBmun_1De68-6" value="" style="html=1;points=[[0,0,0,0,5],[0,1,0,0,-5],[1,0,0,0,5],[1,1,0,0,-5]];perimeter=orthogonalPerimeter;outlineConnect=0;targetShapes=umlLifeline;portConstraint=eastwest;newEdgeStyle={&quot;curved&quot;:0,&quot;rounded&quot;:0};strokeColor=default;align=center;verticalAlign=middle;fontFamily=Helvetica;fontSize=12;fontColor=default;fillColor=default;" vertex="1" parent="Cm1tVQZYmMBmun_1De68-1">
          <mxGeometry x="250" y="130.00411764705882" width="10" height="70.58823529411765" as="geometry" />
        </mxCell>
        <mxCell id="Cm1tVQZYmMBmun_1De68-7" value="No" style="html=1;verticalAlign=bottom;endArrow=block;curved=0;rounded=0;fontFamily=Helvetica;fontSize=12;fontColor=default;entryX=0;entryY=0;entryDx=0;entryDy=5;entryPerimeter=0;" edge="1" parent="Cm1tVQZYmMBmun_1De68-1">
          <mxGeometry width="80" relative="1" as="geometry">
            <mxPoint x="30" y="140.00411764705882" as="sourcePoint" />
            <mxPoint x="250" y="140.00411764705882" as="targetPoint" />
          </mxGeometry>
        </mxCell>
        <mxCell id="Cm1tVQZYmMBmun_1De68-8" value="reject website editing request" style="html=1;verticalAlign=bottom;endArrow=block;curved=0;rounded=0;fontFamily=Helvetica;fontSize=12;fontColor=default;" edge="1" parent="Cm1tVQZYmMBmun_1De68-1">
          <mxGeometry width="80" relative="1" as="geometry">
            <mxPoint x="250" y="189.9982352941176" as="sourcePoint" />
            <mxPoint x="30" y="189.9982352941176" as="targetPoint" />
          </mxGeometry>
        </mxCell>
        <mxCell id="Cm1tVQZYmMBmun_1De68-9" value="indicate that website will modify" style="html=1;verticalAlign=bottom;endArrow=block;curved=0;rounded=0;" edge="1" parent="1" target="Cm1tVQZYmMBmun_1De68-10">
          <mxGeometry width="80" relative="1" as="geometry">
            <mxPoint x="-770.5" y="-400" as="sourcePoint" />
            <mxPoint x="-545" y="-400" as="targetPoint" />
          </mxGeometry>
        </mxCell>
        <mxCell id="Cm1tVQZYmMBmun_1De68-11" value="" style="group;fillColor=none;strokeColor=#b85450;" vertex="1" connectable="0" parent="1">
          <mxGeometry x="-795" y="-390" width="355" height="150" as="geometry" />
        </mxCell>
        <mxCell id="Cm1tVQZYmMBmun_1De68-12" value="&lt;b&gt;alt&amp;nbsp;&lt;/b&gt;user.website &lt;b&gt;NOT IN&amp;nbsp;&lt;/b&gt;website_data" style="shape=umlFrame;whiteSpace=wrap;html=1;pointerEvents=0;strokeColor=default;align=center;verticalAlign=middle;fontFamily=Helvetica;fontSize=12;fontColor=default;fillColor=default;width=215;height=20;" vertex="1" parent="Cm1tVQZYmMBmun_1De68-11">
          <mxGeometry width="355" height="150" as="geometry" />
        </mxCell>
        <mxCell id="Cm1tVQZYmMBmun_1De68-13" value="" style="endArrow=none;dashed=1;html=1;rounded=0;fontFamily=Helvetica;fontSize=12;fontColor=default;exitX=0.001;exitY=0.545;exitDx=0;exitDy=0;exitPerimeter=0;entryX=1;entryY=0.55;entryDx=0;entryDy=0;entryPerimeter=0;" edge="1" parent="Cm1tVQZYmMBmun_1De68-11">
          <mxGeometry width="50" height="50" relative="1" as="geometry">
            <mxPoint x="0.3549999999999462" y="89.99806722689075" as="sourcePoint" />
            <mxPoint x="355" y="90.74806722689075" as="targetPoint" />
          </mxGeometry>
        </mxCell>
        <mxCell id="Cm1tVQZYmMBmun_1De68-21" value="notify that we are unable to modify the provided website" style="html=1;verticalAlign=bottom;endArrow=block;curved=0;rounded=0;entryX=1;entryY=0;entryDx=0;entryDy=5;entryPerimeter=0;" edge="1" parent="1" source="Cm1tVQZYmMBmun_1De68-10" target="Cm1tVQZYmMBmun_1De68-19">
          <mxGeometry width="80" relative="1" as="geometry">
            <mxPoint x="-630" y="-320" as="sourcePoint" />
            <mxPoint x="-550" y="-320" as="targetPoint" />
          </mxGeometry>
        </mxCell>
        <mxCell id="Cm1tVQZYmMBmun_1De68-22" value="ask about desired changes" style="html=1;verticalAlign=bottom;endArrow=block;curved=0;rounded=0;" edge="1" parent="1" source="Cm1tVQZYmMBmun_1De68-10" target="Cm1tVQZYmMBmun_1De68-20">
          <mxGeometry width="80" relative="1" as="geometry">
            <mxPoint x="-640" y="-230" as="sourcePoint" />
            <mxPoint x="-560" y="-230" as="targetPoint" />
          </mxGeometry>
        </mxCell>
        <mxCell id="aeY2nJqXoNuJw8O9usds-9" value="" style="shape=umlLifeline;perimeter=lifelinePerimeter;whiteSpace=wrap;html=1;container=1;dropTarget=0;collapsible=0;recursiveResize=0;outlineConnect=0;portConstraint=eastwest;newEdgeStyle={&quot;curved&quot;:0,&quot;rounded&quot;:0};participant=umlActor;strokeColor=default;align=center;verticalAlign=middle;fontFamily=Helvetica;fontSize=12;fontColor=default;fillColor=default;" parent="1" vertex="1">
          <mxGeometry x="-780" y="-975.45" width="20" height="2035.45" as="geometry" />
        </mxCell>
        <mxCell id="aeY2nJqXoNuJw8O9usds-28" value="" style="html=1;points=[[0,0,0,0,5],[0,1,0,0,-5],[1,0,0,0,5],[1,1,0,0,-5]];perimeter=orthogonalPerimeter;outlineConnect=0;targetShapes=umlLifeline;portConstraint=eastwest;newEdgeStyle={&quot;curved&quot;:0,&quot;rounded&quot;:0};strokeColor=default;align=center;verticalAlign=middle;fontFamily=Helvetica;fontSize=12;fontColor=default;fillColor=default;" parent="aeY2nJqXoNuJw8O9usds-9" vertex="1">
          <mxGeometry x="5" y="75.45" width="10" height="124.55" as="geometry" />
        </mxCell>
        <mxCell id="Cm1tVQZYmMBmun_1De68-20" value="" style="html=1;points=[[0,0,0,0,5],[0,1,0,0,-5],[1,0,0,0,5],[1,1,0,0,-5]];perimeter=orthogonalPerimeter;outlineConnect=0;targetShapes=umlLifeline;portConstraint=eastwest;newEdgeStyle={&quot;curved&quot;:0,&quot;rounded&quot;:0};" vertex="1" parent="aeY2nJqXoNuJw8O9usds-9">
          <mxGeometry x="5" y="695.45" width="11.83" height="24.55" as="geometry" />
        </mxCell>
        <mxCell id="Cm1tVQZYmMBmun_1De68-19" value="" style="html=1;points=[[0,0,0,0,5],[0,1,0,0,-5],[1,0,0,0,5],[1,1,0,0,-5]];perimeter=orthogonalPerimeter;outlineConnect=0;targetShapes=umlLifeline;portConstraint=eastwest;newEdgeStyle={&quot;curved&quot;:0,&quot;rounded&quot;:0};" vertex="1" parent="aeY2nJqXoNuJw8O9usds-9">
          <mxGeometry x="4.080000000000002" y="625.4545454545455" width="11.83" height="30" as="geometry" />
        </mxCell>
        <mxCell id="aeY2nJqXoNuJw8O9usds-10" value="&lt;b&gt;TradePro&lt;/b&gt;" style="text;html=1;align=center;verticalAlign=middle;resizable=0;points=[];autosize=1;strokeColor=none;fillColor=none;fontFamily=Helvetica;fontSize=12;fontColor=default;" parent="1" vertex="1">
          <mxGeometry x="-810" y="-1015" width="80" height="30" as="geometry" />
        </mxCell>
        <mxCell id="aeY2nJqXoNuJw8O9usds-27" value="" style="html=1;points=[[0,0,0,0,5],[0,1,0,0,-5],[1,0,0,0,5],[1,1,0,0,-5]];perimeter=orthogonalPerimeter;outlineConnect=0;targetShapes=umlLifeline;portConstraint=eastwest;newEdgeStyle={&quot;curved&quot;:0,&quot;rounded&quot;:0};strokeColor=default;align=center;verticalAlign=middle;fontFamily=Helvetica;fontSize=12;fontColor=default;fillColor=default;" parent="1" vertex="1">
          <mxGeometry x="-775" y="-700" width="10" height="220" as="geometry" />
        </mxCell>
        <mxCell id="aeY2nJqXoNuJw8O9usds-23" value="&lt;b&gt;opt&amp;nbsp;&lt;/b&gt;website_data.length == 0" style="shape=umlFrame;whiteSpace=wrap;html=1;pointerEvents=0;strokeColor=default;align=center;verticalAlign=middle;fontFamily=Helvetica;fontSize=12;fontColor=default;fillColor=default;width=200;height=20;" parent="1" vertex="1">
          <mxGeometry x="-800" y="-840" width="370" height="80" as="geometry" />
        </mxCell>
        <mxCell id="aeY2nJqXoNuJw8O9usds-33" value="" style="group;fillColor=none;strokeColor=#b85450;" parent="1" vertex="1" connectable="0">
          <mxGeometry x="-795" y="-680" width="355" height="210" as="geometry" />
        </mxCell>
        <mxCell id="aeY2nJqXoNuJw8O9usds-31" value="&lt;b&gt;alt &lt;/b&gt;user.confirm" style="shape=umlFrame;whiteSpace=wrap;html=1;pointerEvents=0;strokeColor=default;align=center;verticalAlign=middle;fontFamily=Helvetica;fontSize=12;fontColor=default;fillColor=default;width=130;height=20;" parent="aeY2nJqXoNuJw8O9usds-33" vertex="1">
          <mxGeometry width="355" height="210" as="geometry" />
        </mxCell>
        <mxCell id="aeY2nJqXoNuJw8O9usds-32" value="" style="endArrow=none;dashed=1;html=1;rounded=0;fontFamily=Helvetica;fontSize=12;fontColor=default;exitX=0.001;exitY=0.545;exitDx=0;exitDy=0;exitPerimeter=0;entryX=1;entryY=0.55;entryDx=0;entryDy=0;entryPerimeter=0;" parent="aeY2nJqXoNuJw8O9usds-33" edge="1">
          <mxGeometry width="50" height="50" relative="1" as="geometry">
            <mxPoint x="0.3549999999999462" y="121" as="sourcePoint" />
            <mxPoint x="355" y="122.05000000000001" as="targetPoint" />
          </mxGeometry>
        </mxCell>
        <mxCell id="aeY2nJqXoNuJw8O9usds-39" value="Yes" style="html=1;verticalAlign=bottom;endArrow=block;curved=0;rounded=0;fontFamily=Helvetica;fontSize=12;fontColor=default;entryX=-0.267;entryY=0.167;entryDx=0;entryDy=0;entryPerimeter=0;" parent="aeY2nJqXoNuJw8O9usds-33" edge="1" target="aeY2nJqXoNuJw8O9usds-36">
          <mxGeometry width="80" relative="1" as="geometry">
            <mxPoint x="35.5" y="49.411764705882355" as="sourcePoint" />
            <mxPoint x="295.8333333333333" y="49.411764705882355" as="targetPoint" />
          </mxGeometry>
        </mxCell>
        <mxCell id="aeY2nJqXoNuJw8O9usds-47" value="No" style="html=1;verticalAlign=bottom;endArrow=block;curved=0;rounded=0;fontFamily=Helvetica;fontSize=12;fontColor=default;" parent="aeY2nJqXoNuJw8O9usds-33" edge="1" target="aeY2nJqXoNuJw8O9usds-45">
          <mxGeometry width="80" relative="1" as="geometry">
            <mxPoint x="35.5" y="140.00411764705882" as="sourcePoint" />
            <mxPoint x="295.8333333333333" y="140.00411764705882" as="targetPoint" />
          </mxGeometry>
        </mxCell>
        <mxCell id="aeY2nJqXoNuJw8O9usds-48" value="reject website editing request" style="html=1;verticalAlign=bottom;endArrow=block;curved=0;rounded=0;fontFamily=Helvetica;fontSize=12;fontColor=default;" parent="aeY2nJqXoNuJw8O9usds-33" edge="1" source="aeY2nJqXoNuJw8O9usds-45">
          <mxGeometry width="80" relative="1" as="geometry">
            <mxPoint x="295.8333333333333" y="189.9982352941176" as="sourcePoint" />
            <mxPoint x="35.5" y="189.9982352941176" as="targetPoint" />
          </mxGeometry>
        </mxCell>
        <mxCell id="Cm1tVQZYmMBmun_1De68-23" value="&lt;b&gt;opt&amp;nbsp;&lt;/b&gt;scenario 1" style="shape=umlFrame;whiteSpace=wrap;html=1;pointerEvents=0;width=100;height=30;" vertex="1" parent="1">
          <mxGeometry x="-800" y="-210" width="370" height="370" as="geometry" />
        </mxCell>
        <mxCell id="Cm1tVQZYmMBmun_1De68-24" value="" style="html=1;points=[[0,0,0,0,5],[0,1,0,0,-5],[1,0,0,0,5],[1,1,0,0,-5]];perimeter=orthogonalPerimeter;outlineConnect=0;targetShapes=umlLifeline;portConstraint=eastwest;newEdgeStyle={&quot;curved&quot;:0,&quot;rounded&quot;:0};" vertex="1" parent="1">
          <mxGeometry x="-775" y="-170" width="10" height="300" as="geometry" />
        </mxCell>
        <mxCell id="Cm1tVQZYmMBmun_1De68-25" value="" style="html=1;points=[[0,0,0,0,5],[0,1,0,0,-5],[1,0,0,0,5],[1,1,0,0,-5]];perimeter=orthogonalPerimeter;outlineConnect=0;targetShapes=umlLifeline;portConstraint=eastwest;newEdgeStyle={&quot;curved&quot;:0,&quot;rounded&quot;:0};" vertex="1" parent="1">
          <mxGeometry x="-464" y="-170" width="10" height="300" as="geometry" />
        </mxCell>
        <mxCell id="Cm1tVQZYmMBmun_1De68-27" value="I want you to change the title of my web site" style="html=1;verticalAlign=bottom;endArrow=block;curved=0;rounded=0;" edge="1" parent="1">
          <mxGeometry width="80" relative="1" as="geometry">
            <mxPoint x="-765.5" y="-160" as="sourcePoint" />
            <mxPoint x="-464.5" y="-160" as="targetPoint" />
          </mxGeometry>
        </mxCell>
        <mxCell id="Cm1tVQZYmMBmun_1De68-28" value="" style="html=1;points=[[0,0,0,0,5],[0,1,0,0,-5],[1,0,0,0,5],[1,1,0,0,-5]];perimeter=orthogonalPerimeter;outlineConnect=0;targetShapes=umlLifeline;portConstraint=eastwest;newEdgeStyle={&quot;curved&quot;:0,&quot;rounded&quot;:0};" vertex="1" parent="1">
          <mxGeometry x="-460" y="-147" width="10" height="40" as="geometry" />
        </mxCell>
        <mxCell id="Cm1tVQZYmMBmun_1De68-29" value="find the website section" style="html=1;align=left;spacingLeft=2;endArrow=block;rounded=0;edgeStyle=orthogonalEdgeStyle;curved=0;rounded=0;exitX=1;exitY=0;exitDx=0;exitDy=5;exitPerimeter=0;" edge="1" parent="1">
          <mxGeometry relative="1" as="geometry">
            <mxPoint x="-454" y="-166" as="sourcePoint" />
            <Array as="points">
              <mxPoint x="-425" y="-166" />
              <mxPoint x="-425" y="-131" />
            </Array>
            <mxPoint x="-450" y="-131" as="targetPoint" />
          </mxGeometry>
        </mxCell>
        <mxCell id="Cm1tVQZYmMBmun_1De68-30" value="requests confirmation regarding the title found&amp;nbsp;" style="html=1;verticalAlign=bottom;endArrow=block;curved=0;rounded=0;" edge="1" parent="1">
          <mxGeometry width="80" relative="1" as="geometry">
            <mxPoint x="-460" y="-110.17" as="sourcePoint" />
            <mxPoint x="-765" y="-110.17" as="targetPoint" />
          </mxGeometry>
        </mxCell>
        <mxCell id="Cm1tVQZYmMBmun_1De68-31" value="&lt;b&gt;loop !&lt;/b&gt;user.confirm" style="shape=umlFrame;whiteSpace=wrap;html=1;pointerEvents=0;width=113;height=30;" vertex="1" parent="1">
          <mxGeometry x="-792.5" y="-100" width="355" height="130" as="geometry" />
        </mxCell>
        <mxCell id="Cm1tVQZYmMBmun_1De68-32" value="No, the title is {{title}}" style="html=1;verticalAlign=bottom;endArrow=block;curved=0;rounded=0;" edge="1" parent="1" source="Cm1tVQZYmMBmun_1De68-24" target="Cm1tVQZYmMBmun_1De68-25">
          <mxGeometry width="80" relative="1" as="geometry">
            <mxPoint x="-810" y="-40" as="sourcePoint" />
            <mxPoint x="-509.5" y="-40" as="targetPoint" />
            <Array as="points">
              <mxPoint x="-610" y="-50" />
            </Array>
          </mxGeometry>
        </mxCell>
        <mxCell id="Cm1tVQZYmMBmun_1De68-33" value="" style="html=1;points=[[0,0,0,0,5],[0,1,0,0,-5],[1,0,0,0,5],[1,1,0,0,-5]];perimeter=orthogonalPerimeter;outlineConnect=0;targetShapes=umlLifeline;portConstraint=eastwest;newEdgeStyle={&quot;curved&quot;:0,&quot;rounded&quot;:0};" vertex="1" parent="1">
          <mxGeometry x="-460" y="-20" width="10" height="40" as="geometry" />
        </mxCell>
        <mxCell id="Cm1tVQZYmMBmun_1De68-34" value="find the right title" style="html=1;align=left;spacingLeft=2;endArrow=block;rounded=0;edgeStyle=orthogonalEdgeStyle;curved=0;rounded=0;" edge="1" target="Cm1tVQZYmMBmun_1De68-33" parent="1">
          <mxGeometry relative="1" as="geometry">
            <mxPoint x="-455" y="-40" as="sourcePoint" />
            <Array as="points">
              <mxPoint x="-425" y="-10" />
            </Array>
          </mxGeometry>
        </mxCell>
        <mxCell id="Cm1tVQZYmMBmun_1De68-35" value="requests confirmation regarding the title found&amp;nbsp;" style="html=1;verticalAlign=bottom;endArrow=block;curved=0;rounded=0;" edge="1" parent="1" source="Cm1tVQZYmMBmun_1De68-33" target="Cm1tVQZYmMBmun_1De68-24">
          <mxGeometry width="80" relative="1" as="geometry">
            <mxPoint x="-620" y="20" as="sourcePoint" />
            <mxPoint x="-540" y="20" as="targetPoint" />
          </mxGeometry>
        </mxCell>
        <mxCell id="Cm1tVQZYmMBmun_1De68-36" value="Yes, this is the title" style="html=1;verticalAlign=bottom;endArrow=block;curved=0;rounded=0;" edge="1" parent="1">
          <mxGeometry width="80" relative="1" as="geometry">
            <mxPoint x="-765" y="50" as="sourcePoint" />
            <mxPoint x="-464" y="50" as="targetPoint" />
          </mxGeometry>
        </mxCell>
        <mxCell id="Cm1tVQZYmMBmun_1De68-39" value="call the edit website function" style="html=1;verticalAlign=bottom;endArrow=open;curved=0;rounded=0;entryX=0;entryY=0;entryDx=0;entryDy=5;endFill=0;" edge="1" target="Cm1tVQZYmMBmun_1De68-38" parent="1" source="Cm1tVQZYmMBmun_1De68-25">
          <mxGeometry relative="1" as="geometry">
            <mxPoint x="-245" y="45" as="sourcePoint" />
          </mxGeometry>
        </mxCell>
        <mxCell id="Cm1tVQZYmMBmun_1De68-40" value="confirm update" style="html=1;verticalAlign=bottom;endArrow=open;dashed=1;endSize=8;curved=0;rounded=0;exitX=0;exitY=1;exitDx=0;exitDy=-5;" edge="1" source="Cm1tVQZYmMBmun_1De68-38" parent="1" target="Cm1tVQZYmMBmun_1De68-25">
          <mxGeometry relative="1" as="geometry">
            <mxPoint x="-245" y="115" as="targetPoint" />
          </mxGeometry>
        </mxCell>
        <mxCell id="Cm1tVQZYmMBmun_1De68-41" value="successfully upgraded" style="html=1;verticalAlign=bottom;endArrow=block;curved=0;rounded=0;entryX=1;entryY=1;entryDx=0;entryDy=-5;entryPerimeter=0;" edge="1" parent="1" source="Cm1tVQZYmMBmun_1De68-25" target="Cm1tVQZYmMBmun_1De68-24">
          <mxGeometry width="80" relative="1" as="geometry">
            <mxPoint x="-650" y="130" as="sourcePoint" />
            <mxPoint x="-570" y="130" as="targetPoint" />
          </mxGeometry>
        </mxCell>
      </root>
    </mxGraphModel>
  </diagram>
</mxfile>
